<?xml version="1.0" encoding="iso-8859-1"?>
<!-- Generator: Adobe Illustrator 16.0.0, SVG Export Plug-In . SVG Version: 6.00 Build 0)  -->
<!DOCTYPE svg PUBLIC "-//W3C//DTD SVG 1.1//EN" "http://www.w3.org/Graphics/SVG/1.1/DTD/svg11.dtd">
<svg version="1.1" id="Capa_1" xmlns="http://www.w3.org/2000/svg" xmlns:xlink="http://www.w3.org/1999/xlink" x="0px" y="0px"
	 width="596.317px" height="596.317px" viewBox="0 0 596.317 596.317" style="enable-background:new 0 0 596.317 596.317;"
	 xml:space="preserve">
<g>
	<g>
		<path d="M82.142,401.423c10.557,10.56,24.54,16.376,39.371,16.376c14.791,0,29.263-6.009,39.706-16.484
			c6.653-6.675,11.4-14.762,13.971-23.602h43.414v43.435c-15.941,4.66-29.219,16.291-35.811,32.204
			c-8.67,20.931-3.92,44.805,12.1,60.823l65.647,65.636c9.81,10.19,23.44,16.007,37.619,16.007c14.18,0,27.81-5.817,37.622-16.009
			l66.24-66.23c16.008-16.005,20.765-39.865,12.117-60.785c-6.665-16.122-20.2-27.86-36.419-32.41v-42.669h45.221
			c2.856,7.263,7.188,13.917,12.844,19.591c10.885,10.92,25.971,17.183,41.389,17.183c15.439,0,30.001-6.06,41.003-17.062
			l61.633-61.645c10.191-9.81,16.01-23.439,16.01-37.619c0.001-14.181-5.816-27.812-16.009-37.623l-66.23-66.241
			c-10.557-10.559-24.539-16.375-39.37-16.375c-14.244,0-27.827,5.352-38.247,15.072c-5.482,5.113-9.804,11.168-12.844,17.997
			c-1.104,2.48-2.021,5.02-2.746,7.608l-42.652,0.001v-42.663c16.219-4.55,29.755-16.289,36.419-32.411
			c8.647-20.92,3.892-44.779-12.115-60.785l-66.244-66.234C325.968,6.317,312.338,0.5,298.159,0.5
			c-14.183,0-27.815,5.82-37.626,16.014l-65.638,65.628c-16.02,16.018-20.77,39.892-12.102,60.82
			c6.591,15.914,19.869,27.546,35.811,32.207v43.43h-42.656c-0.727-2.589-1.643-5.13-2.748-7.611
			c-3.041-6.828-7.362-12.882-12.844-17.995c-10.418-9.717-23.999-15.069-38.238-15.071c-14.833-0.002-28.817,5.813-39.376,16.374
			L16.51,260.537C6.318,270.347,0.5,283.979,0.5,298.159c0,14.182,5.818,27.813,16.012,37.623L82.142,401.423z M46.395,291.236
			l66.64-66.65c2.642-2.643,5.89-3.825,9.078-3.825c6.661,0,13.051,5.168,13.062,12.977l0.021,14.751
			c0.01,7.156,5.814,12.95,12.968,12.95c0.004,0,0.009,0,0.013,0h97.968c8.45,0,15.3-6.85,15.3-15.3v-98.627
			c0.008-7.169-5.802-12.981-12.967-12.981c-0.014,0-0.029,0-0.043,0l-14.038,0.045c-0.015,0-0.031,0-0.046,0
			c-11.543,0-17.339-13.966-9.166-22.14l66.052-66.041c1.858-2.037,4.39-3.055,6.923-3.055c2.532,0,5.064,1.018,6.923,3.055
			l66.65,66.639c8.164,8.163,2.394,22.123-9.151,22.139l-14.751,0.021c-7.161,0.01-12.958,5.822-12.951,12.982v97.963
			c0,8.45,6.85,15.3,15.3,15.3h97.963c0.005,0,0.009,0,0.014,0c7.154,0,12.959-5.794,12.968-12.951l0.021-14.75
			c0.012-7.809,6.401-12.977,13.062-12.977c3.187,0,6.437,1.183,9.078,3.825l66.639,66.649c4.074,3.716,4.074,10.129,0,13.845
			l-62.042,62.054c-3.118,3.118-6.95,4.514-10.709,4.514c-7.881,0-15.439-6.135-15.411-15.38l0.026-8.385
			c0.024-7.179-5.789-13.01-12.967-13.01c-0.005,0-0.011,0-0.015,0H350.18c-8.45,0-15.3,6.851-15.3,15.3v97.968
			c-0.007,7.16,5.79,12.972,12.95,12.981l14.751,0.021c11.546,0.017,17.315,13.977,9.151,22.14l-66.65,66.64
			c-1.858,2.037-4.391,3.056-6.923,3.056s-5.064-1.019-6.923-3.056l-66.052-66.041c-8.174-8.173-2.379-22.141,9.166-22.14
			c0.015,0,0.031,0,0.046,0l14.038,0.046c0.014,0,0.028,0,0.042,0c7.164,0,12.975-5.813,12.967-12.982v-98.632
			c0-8.45-6.85-15.3-15.3-15.3h-98.631c-0.005,0-0.009,0-0.013,0c-7.178,0-12.992,5.831-12.968,13.01l0.045,14.038
			c0.025,7.838-6.382,13.036-13.062,13.036c-3.186,0-6.435-1.183-9.077-3.825l-66.042-66.052
			C42.322,301.366,42.322,294.952,46.395,291.236z" fill="#666666"/>
		<path d="M298.159,596.317c-14.25,0-28.093-5.891-37.979-16.16l-65.64-65.629c-16.164-16.162-20.956-40.251-12.208-61.368
			c6.521-15.741,19.546-27.526,35.773-32.386v-42.562h-42.54c-2.624,8.795-7.456,16.898-13.991,23.454
			c-10.536,10.57-25.137,16.632-40.06,16.632c-14.965,0-29.073-5.868-39.725-16.522l-65.63-65.641
			C5.892,326.256,0,312.412,0,298.159c0-14.251,5.892-28.096,16.164-37.983l66.226-66.234c10.652-10.653,24.759-16.52,39.722-16.52
			c14.375,0.002,28.076,5.402,38.586,15.206c5.531,5.157,9.891,11.266,12.96,18.157c1.056,2.372,1.953,4.831,2.668,7.315h41.778
			v-42.557c-16.228-4.861-29.253-16.647-35.773-32.389c-8.747-21.117-3.954-45.204,12.21-61.365L260.18,16.16
			C270.062,5.893,283.907,0,298.159,0c14.248,0,28.091,5.89,37.979,16.16l66.237,66.228c16.15,16.149,20.948,40.222,12.224,61.329
			c-6.604,15.979-19.853,27.842-36.381,32.598v41.785l41.774-0.001c0.714-2.481,1.61-4.939,2.667-7.312
			c3.068-6.89,7.428-13,12.96-18.159c10.512-9.806,24.216-15.206,38.586-15.206c0.001,0,0.001,0,0.002,0
			c14.965,0,29.072,5.868,39.724,16.522l66.23,66.241c10.266,9.881,16.156,23.725,16.155,37.977
			c0,14.249-5.892,28.093-16.163,37.979l-61.626,61.638c-11.097,11.098-25.783,17.209-41.356,17.209
			c-15.551,0-30.765-6.316-41.743-17.33c-5.6-5.617-9.914-12.158-12.829-19.443h-44.381v41.791
			c16.527,4.755,29.774,16.617,36.381,32.597c8.726,21.108,3.926,45.182-12.226,61.33l-66.24,66.23
			C326.252,590.427,312.408,596.317,298.159,596.317z M174.814,377.213h44.29v44.31l-0.36,0.104
			c-16.101,4.707-29.037,16.34-35.489,31.916c-8.592,20.742-3.886,44.403,11.991,60.278l65.647,65.636
			c9.705,10.082,23.286,15.86,37.266,15.86c13.979,0,27.56-5.779,37.261-15.855l66.247-66.237
			c15.865-15.862,20.579-39.508,12.009-60.24c-6.537-15.812-19.692-27.52-36.092-32.12l-0.365-0.103v-43.548h46.062l0.125,0.317
			c2.864,7.284,7.148,13.818,12.732,19.421c10.791,10.826,25.748,17.035,41.034,17.035c15.306,0,29.742-6.008,40.649-16.916
			l61.633-61.645c10.084-9.706,15.863-23.286,15.863-37.266c0.001-13.981-5.778-27.563-15.855-37.263l-66.237-66.248
			c-10.463-10.465-24.319-16.229-39.017-16.229c-14.117,0-27.579,5.304-37.906,14.938c-5.433,5.067-9.715,11.067-12.728,17.834
			c-1.089,2.445-2.005,4.981-2.722,7.54l-0.103,0.365l-43.531,0.001v-43.542l0.365-0.103c16.401-4.602,29.556-16.309,36.092-32.12
			c8.569-20.732,3.856-44.378-12.007-60.24L335.425,16.86C325.718,6.778,312.137,1,298.159,1c-13.982,0-27.565,5.781-37.266,15.86
			l-65.645,65.635c-15.876,15.874-20.584,39.534-11.993,60.275c6.452,15.577,19.387,27.21,35.489,31.918l0.36,0.105v44.305H175.57
			l-0.103-0.365c-0.719-2.562-1.635-5.1-2.723-7.543c-3.015-6.767-7.297-12.767-12.729-17.832
			c-10.326-9.63-23.784-14.935-37.897-14.937c-14.704,0-28.56,5.763-39.023,16.227L16.864,260.89C6.78,270.597,1,284.178,1,298.159
			c0,13.982,5.78,27.564,15.858,37.263l65.637,65.647c10.463,10.466,24.319,16.229,39.018,16.229
			c14.659,0,29.001-5.955,39.352-16.337c6.506-6.528,11.293-14.615,13.845-23.389L174.814,377.213z M298.159,553.479
			c-2.768,0-5.426-1.173-7.292-3.219l-66.037-66.024c-3.926-3.925-5.045-9.55-2.92-14.678c2.124-5.129,6.891-8.315,12.438-8.315
			l14.087,0.046c3.373,0,6.505-1.299,8.86-3.656c2.356-2.358,3.651-5.493,3.648-8.825v-98.633c0-8.16-6.64-14.8-14.8-14.8h-98.631
			c-3.352,0-6.488,1.302-8.844,3.667c-2.356,2.363-3.648,5.504-3.637,8.841l0.045,14.038c0.012,3.63-1.354,7.005-3.844,9.503
			c-2.556,2.564-6.098,4.035-9.719,4.035c-3.521,0-6.87-1.41-9.43-3.972l-66.042-66.052c-2.028-1.849-3.201-4.507-3.201-7.275
			c0-2.769,1.172-5.426,3.218-7.292l66.623-66.634c2.561-2.561,5.91-3.972,9.431-3.972c8.478,0,13.553,6.852,13.562,13.476
			l0.021,14.751c0.01,6.865,5.603,12.451,12.468,12.451h97.98c8.161,0,14.8-6.639,14.8-14.8v-98.627
			c0.003-3.333-1.292-6.467-3.646-8.825c-2.355-2.358-5.488-3.656-8.82-3.656l-14.08,0.045c-5.596,0-10.362-3.187-12.487-8.315
			c-2.124-5.128-1.005-10.752,2.92-14.678l66.052-66.041c1.85-2.029,4.507-3.202,7.276-3.202c2.769,0,5.427,1.173,7.292,3.218
			l66.635,66.623c3.922,3.921,5.043,9.542,2.924,14.668s-6.881,8.316-12.428,8.324l-14.751,0.021
			c-6.873,0.01-12.459,5.609-12.452,12.481v97.963c0,8.161,6.639,14.8,14.8,14.8h97.963c6.88,0,12.473-5.585,12.481-12.451
			l0.021-14.75c0.01-6.625,5.086-13.476,13.562-13.476c3.521,0,6.871,1.411,9.432,3.972l66.639,66.649
			c2.029,1.85,3.202,4.508,3.202,7.276c0,2.769-1.173,5.427-3.219,7.292l-62.025,62.038c-3.005,3.005-6.934,4.66-11.062,4.66
			c-4.246,0-8.401-1.726-11.4-4.733c-2.922-2.931-4.523-6.89-4.511-11.148l0.026-8.385c0.012-3.337-1.28-6.478-3.636-8.841
			c-2.356-2.365-5.493-3.667-8.831-3.667H350.18c-8.161,0-14.8,6.64-14.8,14.8v97.968c-0.007,6.873,5.579,12.472,12.451,12.481
			l14.751,0.021c5.547,0.008,10.309,3.197,12.428,8.323c2.119,5.127,0.999,10.748-2.924,14.67l-66.65,66.64
			C303.585,552.306,300.928,553.479,298.159,553.479z M234.35,461.742l-0.001,0.5c-5.136,0-9.548,2.949-11.515,7.698
			c-1.966,4.747-0.931,9.954,2.704,13.588l66.052,66.041c1.693,1.854,4.082,2.909,6.569,2.909c2.487,0,4.876-1.055,6.554-2.893
			l66.666-66.656c3.631-3.631,4.669-8.835,2.707-13.58c-1.962-4.746-6.37-7.698-11.506-7.706l-14.751-0.021
			c-7.423-0.01-13.456-6.058-13.449-13.481v-97.968c0-8.712,7.088-15.8,15.8-15.8h98.626c3.62,0,7.009,1.406,9.554,3.961
			c2.545,2.554,3.94,5.945,3.928,9.551l-0.026,8.385c-0.013,4.048,1.446,7.658,4.219,10.438c2.812,2.821,6.71,4.439,10.692,4.439
			c3.918,0,7.498-1.51,10.355-4.367l62.042-62.054c1.854-1.692,2.909-4.081,2.909-6.569c0-2.488-1.055-4.876-2.893-6.553
			l-66.655-66.666c-2.406-2.407-5.423-3.679-8.725-3.679c-6.166,0-12.551,4.667-12.562,12.478l-0.021,14.75
			c-0.009,7.417-6.051,13.45-13.468,13.45h-97.977c-8.712,0-15.8-7.088-15.8-15.8v-97.963c-0.007-7.423,6.026-13.471,13.45-13.482
			l14.751-0.021c5.136-0.007,9.544-2.96,11.506-7.706c1.961-4.746,0.924-9.949-2.707-13.58l-66.65-66.639
			c-1.692-1.854-4.081-2.909-6.569-2.909s-4.877,1.054-6.553,2.892l-66.068,66.057c-3.634,3.634-4.67,8.84-2.704,13.588
			c1.967,4.749,6.379,7.698,11.516,7.698l14.083-0.045c3.645,0,7.028,1.403,9.572,3.95c2.544,2.547,3.943,5.932,3.939,9.532v98.626
			c0,8.712-7.088,15.8-15.8,15.8h-97.968c-7.428,0-13.47-6.034-13.481-13.45l-0.021-14.751c-0.011-7.809-6.396-12.477-12.562-12.477
			c-3.301,0-6.318,1.272-8.724,3.679l-66.64,66.65c-1.854,1.692-2.909,4.082-2.908,6.569c0,2.488,1.054,4.877,2.892,6.553
			l66.058,66.067c2.406,2.406,5.423,3.679,8.723,3.679c3.357,0,6.641-1.363,9.011-3.741c2.334-2.342,3.563-5.383,3.552-8.793
			l-0.045-14.038c-0.012-3.605,1.384-6.997,3.929-9.551c2.546-2.555,5.934-3.961,9.54-3.961h98.645c8.712,0,15.8,7.088,15.8,15.8
			v98.632c0.004,3.6-1.396,6.985-3.94,9.532c-2.544,2.548-5.928,3.95-9.527,3.95l-14.082-0.046L234.35,461.742z" fill="#666666"/>
	</g>
</g>
</svg>
